<?xml version="1.0" encoding="UTF-8"?>
<svg id="uuid-63343062-9cbe-46b6-ba5d-465c75b6b85e" data-name="Layer 1" xmlns="http://www.w3.org/2000/svg" viewBox="0 0 432.78 432.78">
  <path d="m216.39,432.56h0C97,432.56.22,335.78.22,216.39H.22C.22,97,97,.22,216.39.22h0c119.39,0,216.17,96.78,216.17,216.17h0c0,119.39-96.78,216.17-216.17,216.17Z" fill="none" stroke="#fff" stroke-miterlimit="10" stroke-width=".43"/>
  <g>
    <path d="m216.39,130.23c28.06,0,31.39.11,42.47.61,10.24.47,15.81,2.18,19.52,3.62,4.9,1.91,8.41,4.18,12.08,7.86,3.68,3.68,5.95,7.18,7.86,12.08,1.44,3.71,3.15,9.27,3.62,19.52.5,11.08.61,14.41.61,42.47s-.11,31.39-.61,42.47c-.47,10.25-2.18,15.81-3.62,19.51-1.91,4.91-4.18,8.41-7.86,12.09-3.68,3.68-7.18,5.95-12.08,7.86-3.7,1.44-9.27,3.15-19.52,3.62-11.08.5-14.4.61-42.47.61s-31.39-.11-42.47-.61c-10.25-.47-15.81-2.18-19.51-3.62-4.91-1.91-8.41-4.18-12.08-7.86-3.68-3.68-5.95-7.18-7.86-12.09-1.44-3.7-3.15-9.27-3.62-19.51-.5-11.08-.61-14.4-.61-42.47s.11-31.39.61-42.47c.47-10.25,2.18-15.81,3.62-19.52,1.91-4.9,4.19-8.4,7.86-12.08,3.68-3.68,7.18-5.95,12.08-7.86,3.7-1.44,9.27-3.15,19.51-3.62,11.08-.51,14.41-.61,42.47-.61m0-18.94c-28.54,0-32.12.12-43.33.63-11.19.51-18.83,2.29-25.51,4.89-6.91,2.69-12.77,6.28-18.61,12.12-5.84,5.84-9.44,11.71-12.12,18.62-2.6,6.68-4.38,14.32-4.89,25.51-.51,11.21-.63,14.79-.63,43.33s.12,32.12.63,43.33c.51,11.19,2.29,18.83,4.89,25.51,2.68,6.91,6.28,12.77,12.12,18.61,5.84,5.84,11.7,9.44,18.61,12.12,6.69,2.6,14.32,4.38,25.51,4.89,11.21.51,14.79.63,43.33.63s32.12-.12,43.33-.63c11.19-.51,18.82-2.29,25.51-4.89,6.91-2.69,12.77-6.28,18.62-12.12,5.84-5.84,9.44-11.71,12.12-18.61,2.6-6.69,4.37-14.32,4.89-25.51.51-11.21.63-14.79.63-43.33s-.12-32.12-.63-43.33c-.51-11.19-2.29-18.83-4.89-25.51-2.69-6.91-6.28-12.77-12.12-18.62-5.84-5.84-11.7-9.44-18.62-12.12-6.69-2.6-14.32-4.38-25.51-4.89-11.21-.51-14.79-.63-43.33-.63" fill="#fff" stroke-width="0"/>
    <path d="m216.39,162.42c-29.8,0-53.97,24.16-53.97,53.97s24.16,53.97,53.97,53.97,53.97-24.16,53.97-53.97-24.16-53.97-53.97-53.97m0,89c-19.35,0-35.03-15.69-35.03-35.03s15.68-35.03,35.03-35.03,35.03,15.68,35.03,35.03-15.68,35.03-35.03,35.03" fill="#fff" stroke-width="0"/>
    <path d="m285.1,160.29c0,6.96-5.65,12.61-12.61,12.61s-12.61-5.65-12.61-12.61,5.65-12.61,12.61-12.61,12.61,5.65,12.61,12.61" fill="#fff" stroke-width="0"/>
  </g>
</svg>