<?xml version="1.0" encoding="UTF-8"?>
<svg id="uuid-2c990ad6-fb16-4a39-8330-a5dcf3c60e5e" data-name="Layer 1" xmlns="http://www.w3.org/2000/svg" viewBox="0 0 443.49 443.49">
  <path d="m221.74,443.27h0C99.4,443.27.22,344.09.22,221.74H.22C.22,99.4,99.4.22,221.74.22h0c122.35,0,221.53,99.18,221.53,221.53h0c0,122.35-99.18,221.53-221.53,221.53Z" fill="none" stroke="#fff" stroke-miterlimit="10" stroke-width=".43"/>
  <path d="m117.09,296.45c19.01,12.19,41.58,19.3,65.82,19.3,79.73,0,124.77-67.34,122.06-127.74,8.39-6.05,15.67-13.61,21.43-22.23-7.7,3.41-15.98,5.73-24.66,6.76,8.86-5.3,15.67-13.72,18.88-23.76-8.3,4.92-17.49,8.5-27.26,10.43-7.84-8.35-19-13.56-31.35-13.56-27.71,0-48.09,25.86-41.83,52.73-35.69-1.79-67.33-18.89-88.51-44.87-11.25,19.31-5.84,44.56,13.29,57.34-7.04-.22-13.67-2.16-19.46-5.38-.46,19.9,13.79,38.5,34.44,42.65-6.05,1.65-12.67,2.02-19.39.73,5.45,17.07,21.31,29.47,40.11,29.82-18.05,14.15-40.79,20.47-63.57,17.78Z" fill="#fff" stroke="#fff" stroke-miterlimit="10"/>
</svg>